<?xml version="1.0" encoding="UTF-8"?>
<svg id="Calque_1" data-name="Calque 1" xmlns="http://www.w3.org/2000/svg" viewBox="0 0 500 367.2">
  <defs>
    <style>
      .cls-1 {
        fill: #fff;
      }

      .cls-2 {
        fill: #939698;
      }

      .cls-3 {
        fill: #cecece;
      }

      .cls-4 {
        fill: #95bd58;
      }

      .cls-5 {
        fill: #77943f;
      }
    </style>
  </defs>
  <rect class="cls-5" y="296.88" width="500" height="70.31"/>
  <rect class="cls-4" width="500" height="296.88"/>
  <rect class="cls-2" x="187.5" y="296.88" width="125" height="70.31"/>
  <rect class="cls-5" x="31.25" y="31.25" width="437.5" height="234.38"/>
  <rect class="cls-4" x="54.69" y="54.69" width="390.62" height="187.51"/>
  <circle class="cls-5" cx="351.56" cy="148.45" r="62.5" transform="translate(173.23 485.83) rotate(-85.03)"/>
  <rect class="cls-3" x="187.5" width="125" height="296.88"/>
  <path class="cls-1" d="m125,140.63c-8.62,0-15.63-7.01-15.63-15.63s7.01-15.63,15.63-15.63,15.63,7,15.63,15.63h15.63c0-14.52-9.99-26.64-23.44-30.13v-8.93h-15.63v8.93c-13.45,3.49-23.44,15.62-23.44,30.13,0,17.23,14.02,31.26,31.25,31.26,8.62,0,15.63,7,15.63,15.63s-7.01,15.63-15.63,15.63-15.63-7-15.63-15.63h-15.63c0,14.52,9.99,26.64,23.44,30.13v8.93h15.63v-8.93c13.45-3.49,23.44-15.62,23.44-30.13,0-17.23-14.02-31.25-31.25-31.25Z"/>
</svg>