<?xml version="1.0" encoding="UTF-8"?>
<svg id="Calque_1" data-name="Calque 1" xmlns="http://www.w3.org/2000/svg" viewBox="0 0 500 500">
  <defs>
    <style>
      .cls-1 {
        fill: #e6e6e6;
      }

      .cls-2 {
        fill: #fff;
      }

      .cls-3 {
        fill: #b5b5b5;
      }

      .cls-4 {
        fill: #424548;
      }
    </style>
  </defs>
  <path class="cls-4" d="m494.11,60.77l-54.88-54.88c-3.24-3.23-9.64-5.88-14.22-5.88H58.33v33.33H25V0H8.33C3.75,0,0,3.75,0,8.33v483.33c0,4.57,3.75,8.33,8.33,8.33h483.33c4.58,0,8.33-3.76,8.33-8.33V75c0-4.58-2.65-10.99-5.89-14.23Z"/>
  <path class="cls-2" d="m83.33,500v-233.34c0-9.16,7.5-16.67,16.67-16.67h300c9.17,0,16.67,7.5,16.67,16.67v233.34H83.33Z"/>
  <path class="cls-1" d="m133.33,0v166.67c0,9.17,7.5,16.67,16.67,16.67h250c9.17,0,16.67-7.5,16.67-16.67V0H133.33Z"/>
  <rect class="cls-4" x="283.33" y="33.33" width="83.33" height="133.33"/>
  <rect class="cls-2" x="441.67" y="441.67" width="33.33" height="33.33" rx="8.33" ry="8.33"/>
  <rect class="cls-3" x="83.33" y="433.33" width="333.33" height="66.67"/>
  <rect class="cls-3" x="125" y="283.33" width="250" height="16.67"/>
  <rect class="cls-3" x="125" y="333.33" width="250" height="16.67"/>
  <rect class="cls-3" x="125" y="383.33" width="250" height="16.67"/>
</svg>