<?xml version="1.0" encoding="UTF-8"?>
<svg id="Calque_1" data-name="Calque 1" xmlns="http://www.w3.org/2000/svg" viewBox="0 0 500 433.32">
  <defs>
    <style>
      .cls-1 {
        fill: #f4d74c;
      }

      .cls-2 {
        fill: #fff;
      }

      .cls-3 {
        fill: #ca8634;
      }

      .cls-4 {
        fill: #424548;
      }

      .cls-5 {
        fill: #6eaade;
      }

      .cls-6 {
        fill: #4d7a99;
      }
    </style>
  </defs>
  <path class="cls-5" d="m481.77,118.86s9.08-51.39-29.47-28.67c0,0-3.72-52.69-36.07-15.52,0,0-17.3-32.12-36.57-2.27-25.96,40.26-43.22,103.05-26.47,208.23l31.28-20.75c22.49-65.88,103.01-72.99,113.98-108.77,7.86-25.65-16.68-32.24-16.68-32.24Z"/>
  <path class="cls-5" d="m167.45,63.12l-82.78,30.38C102.93-6.57,223.21.09,223.21.09c0,0-56.21,26.64-55.77,63.03Z"/>
  <path class="cls-5" d="m180.91,81.77l-87.47,11.75C133.31-.2,249.22,32.32,249.22,32.32c0,0-60.72,13.82-68.31,49.45Z"/>
  <path class="cls-1" d="m0,157.93l45.13-12.01.06,30.03s-27.43-4.06-45.19-18.02Z"/>
  <path class="cls-1" d="m45.13,145.91L0,123.1c30.19-23.37,63.97-16.15,63.97-16.15l-18.83,38.97Z"/>
  <path class="cls-3" d="m265.38,358.07h-17.57v65.62c-2.77.49-17.92-.82-24.09-.82-15.37,0-27.82,10.45-27.82,10.45h69.47v-75.26h0Z"/>
  <path class="cls-3" d="m191.4,358.07h-17.56v65.62c-2.77.49-17.91-.82-24.08-.82-15.37,0-27.82,10.45-27.82,10.45h69.47v-75.26Z"/>
  <path class="cls-5" d="m433.67,218.29c32.14,0-34.12,146.09-194.25,146.09-108.71,0-198.79-43.31-198.79-178.97,0-84.22,53.25-152.56,162.13-124.81,110.94,28.29,53.82,157.7,230.9,157.7Z"/>
  <path class="cls-2" d="m296.82,347.11c-129.81-.26-116.43-100.06-232.85-92.93,42.66,131.83,232.85,92.93,232.85,92.93Z"/>
  <path class="cls-6" d="m308.85,160.02c-83.41-81.62-168.4,51.65-65.51,104.59,100.98,51.97,169.81-40.18,169.81-40.18,0,0-50.72-11.93-104.31-64.41Z"/>
  <circle class="cls-4" cx="108.76" cy="124.36" r="20.83" transform="translate(-31.42 211.8) rotate(-80.78)"/>
</svg>