<?xml version="1.0" encoding="UTF-8"?>
<svg id="Calque_1" data-name="Calque 1" xmlns="http://www.w3.org/2000/svg" viewBox="0 0 500 72.54">
  <defs>
    <style>
      .cls-1 {
        fill: #e6f3ff;
      }
    </style>
  </defs>
  <path class="cls-1" d="m26.28,71.05V19.09H0V1.5h56.16v17.59h-26.28v51.96h-3.6Z"/>
  <path class="cls-1" d="m77.04,1.5h50.66v17.59h-32.47v8.79h26.98v16.69h-26.98v8.89h32.47v17.59h-50.66V1.5Z"/>
  <path class="cls-1" d="m204.64,44.76c.07,8.73-2.43,15.54-7.49,20.43-5.06,4.9-12.03,7.34-20.88,7.34-5.26,0-10.11-1.2-14.54-3.6-4.43-2.4-7.94-5.8-10.54-10.19-2.6-4.4-3.9-9.46-3.9-15.19v-14.59c0-5.66,1.25-10.69,3.75-15.09,2.5-4.4,5.93-7.81,10.29-10.24,4.36-2.43,9.24-3.65,14.64-3.65,8.86,0,15.8,2.41,20.83,7.24,5.03,4.83,7.58,11.64,7.64,20.43h-17.99c-.07-3.4-.98-6.03-2.75-7.89s-4.35-2.8-7.74-2.8c-3.07,0-5.6.97-7.6,2.9-2,1.93-3,4.66-3,8.19v16.29c0,3.53,1.05,6.28,3.15,8.24,2.1,1.97,4.68,2.95,7.74,2.95,6.99,0,10.49-3.6,10.49-10.79h17.89Z"/>
  <path class="cls-1" d="m223.12,71.05V1.5h3.7v32.87h46.16V1.5h3.7v69.55h-3.7v-32.97h-46.16v32.97h-3.7Z"/>
  <path class="cls-1" d="m295.76,1.4h4l24.28,42.97L348.22,1.4h3.7v69.55h-56.16V1.4Zm3.7,65.95h48.76V8.89l-22.48,39.57h-3.5l-22.78-40.17v59.05Z"/>
  <path class="cls-1" d="m430.56,71.05h-65.55L397.78,0l32.77,71.05Zm-59.75-3.7h53.96l-26.98-58.56-26.98,58.56Z"/>
  <path class="cls-1" d="m458.78,7.04c-3.83,2.23-6.88,5.26-9.14,9.09-2.27,3.83-3.4,8.01-3.4,12.54v13.19c0,4.73.67,8.63,2,11.69,1.86,4.33,4.7,7.86,8.49,10.59,3.8,2.73,8.06,4.26,12.79,4.6v-32.47h30.48v6.6c0,4.26-.63,8.06-1.9,11.39-2.07,5.53-5.53,9.96-10.39,13.29-4.86,3.33-10.36,5-16.49,5-5.8,0-11.08-1.58-15.84-4.75-4.76-3.16-8.24-7.38-10.44-12.64-1.6-3.73-2.4-8.16-2.4-13.29v-13.19c0-5.2,1.28-9.99,3.85-14.39,2.56-4.4,6.04-7.88,10.44-10.44,4.4-2.56,9.19-3.85,14.39-3.85,4.33,0,8.29.72,11.89,2.15,3.6,1.43,6.66,3.51,9.19,6.25,2.06,2.27,3.75,4.8,5.05,7.59s1.95,5.63,1.95,8.49h-3.6c-.07-2.46-.68-4.9-1.85-7.29-1.17-2.4-2.65-4.56-4.45-6.5-4.46-4.66-10.53-6.99-18.19-6.99-4.46,0-8.61,1.12-12.44,3.35Zm37.52,32.82h-23.18v28.88c4.8-.33,9.11-1.85,12.94-4.55,3.83-2.7,6.64-6.28,8.44-10.74,1.2-3.13,1.8-6.66,1.8-10.59v-3Z"/>
</svg>